<svg width="241" height="54" viewBox="0 0 241 54" fill="none" xmlns="http://www.w3.org/2000/svg">
<path d="M23.8798 12.06C23.0331 13.18 22.2865 13.17 21.6398 12.03C21.2131 11.29 20.6798 10.6367 20.0398 10.07C19.7973 9.85389 19.6147 9.57829 19.5098 9.27C18.7765 7.02333 17.2065 5.70333 14.7998 5.31C15.8798 3.77 17.2465 3 18.8998 3C20.3531 3 21.5965 3.61 22.6298 4.83C24.2565 6.74334 24.6731 9.15333 23.8798 12.06Z" fill="#2570A3"/>
<path d="M42.0498 12.3098C39.9898 12.2565 38.5032 11.4532 37.5898 9.89984C36.7232 8.41317 36.2498 7.61317 36.1698 7.49984C35.4165 6.37317 34.8898 5.12984 34.5898 3.76984C37.3832 2.44317 39.5298 2.89317 41.0298 5.11984C42.1832 6.83984 42.5232 9.23651 42.0498 12.3098Z" fill="#7F529D"/>
<path d="M55 13.1001C57.7614 13.1001 60 10.8615 60 8.1001C60 5.33867 57.7614 3.1001 55 3.1001C52.2386 3.1001 50 5.33867 50 8.1001C50 10.8615 52.2386 13.1001 55 13.1001Z" fill="#D13C74"/>
<path d="M34.5899 3.77002C34.8899 5.13002 35.4165 6.37335 36.1699 7.50002C36.2499 7.61335 36.7232 8.41335 37.5899 9.90002C38.5032 11.4534 39.9899 12.2567 42.0499 12.31C42.1899 14.5767 43.1332 16.41 44.8799 17.81C44.6999 19.59 44.8299 21.3334 45.2699 23.04C45.6899 24.64 46.0232 25.69 46.2699 26.19C46.9165 27.47 48.0232 28.01 49.5899 27.81C50.6365 27.6767 51.0665 27.9267 50.8799 28.56C48.6932 30.04 46.6999 30.1034 44.8999 28.75C43.2599 27.51 42.5265 25.67 42.6999 23.23C42.8065 21.69 42.8599 20.91 42.8599 20.89C42.7265 17.15 40.7465 14.7467 36.9199 13.68C35.0665 13.1667 33.7099 12.0734 32.8499 10.4C31.3965 7.56002 31.9765 5.35002 34.5899 3.77002Z" fill="#5F4B93"/>
<path d="M14.8 5.31006C17.2067 5.70339 18.7767 7.02339 19.51 9.27006C19.6149 9.57835 19.7975 9.85394 20.04 10.0701C20.68 10.6367 21.2133 11.2901 21.64 12.0301C22.2867 13.1701 23.0333 13.1801 23.88 12.0601C24.3733 15.3734 26.1933 17.6101 29.34 18.7701C27.74 21.5834 27.9133 24.0767 29.86 26.2501C29.9667 26.3634 30.75 26.8967 32.21 27.8501C33.0633 28.4101 33.6633 29.2134 34.01 30.2601C34.0221 30.2963 34.044 30.3281 34.0735 30.3524C34.103 30.3767 34.1392 30.3927 34.1785 30.3987C34.2177 30.4048 34.2588 30.4007 34.2976 30.3869C34.3364 30.3731 34.3717 30.3501 34.4 30.3201C34.64 30.0534 34.94 30.0501 35.3 30.3101C35.4933 32.4634 36.6033 33.8801 38.63 34.5601C38.1033 35.5001 38.1533 36.4367 38.78 37.3701C39.24 38.0634 39.63 38.9634 39.95 40.0701C40.0367 40.3634 40.1967 40.6467 40.43 40.9201C41.31 41.9601 41.5567 43.1801 41.17 44.5801C40.9567 45.3334 41.18 45.8401 41.84 46.1001C38.7667 46.2734 36.8733 45.1401 36.16 42.7001C36.16 42.6934 36.0967 41.0967 35.97 37.9101C35.8167 33.9901 33.67 31.3101 29.53 29.8701C26.3233 28.7634 24.7067 26.6401 24.68 23.5001C24.6533 20.9334 24.64 19.6434 24.64 19.6301C23.9933 16.4367 21.81 14.2467 18.09 13.0601C14.27 11.8401 13.1733 9.25673 14.8 5.31006Z" fill="#3383AD"/>
<path d="M44.8797 17.8101C48.473 19.0167 50.6463 20.0801 51.3997 21.0001C53.6663 23.7401 53.493 26.2601 50.8797 28.5601C51.0663 27.9267 50.6363 27.6767 49.5897 27.8101C48.023 28.0101 46.9163 27.4701 46.2697 26.1901C46.023 25.6901 45.6897 24.6401 45.2697 23.0401C44.8297 21.3334 44.6997 19.5901 44.8797 17.8101Z" fill="#7F529D"/>
<path d="M29.34 18.77C32.0467 19.29 33.88 20.8034 34.84 23.31C35.1467 24.11 35.3 26.4434 35.3 30.31C34.94 30.05 34.64 30.0534 34.4 30.32C34.3717 30.3501 34.3365 30.3731 34.2976 30.3869C34.2588 30.4007 34.2178 30.4047 34.1785 30.3987C34.1392 30.3927 34.1031 30.3767 34.0735 30.3524C34.044 30.3281 34.0221 30.2963 34.01 30.26C33.6634 29.2134 33.0634 28.41 32.21 27.85C30.75 26.8967 29.9667 26.3634 29.86 26.25C27.9134 24.0767 27.74 21.5834 29.34 18.77Z" fill="#2570A3"/>
<path d="M25.3198 36.6001C26.7131 37.4401 27.5398 38.6168 27.7998 40.1301C28.0198 41.4301 27.8031 42.6734 27.1498 43.8601C26.3964 45.2268 25.2564 46.0001 23.7298 46.1801C21.8298 46.4001 20.3131 45.7934 19.1798 44.3601C18.0931 42.9801 17.6464 41.1301 17.8398 38.8101C18.1998 34.4901 16.5364 31.6201 12.8498 30.2001C10.3964 29.2534 8.98978 28.6101 8.62978 28.2701C7.78311 27.4634 7.23645 26.4534 6.98978 25.2401C6.75645 24.0868 6.92311 23.0101 7.48978 22.0101C8.34311 20.4968 9.64978 19.6934 11.4098 19.6001C12.8964 19.5134 14.1464 19.8701 15.1598 20.6701C16.2998 21.5568 16.9064 22.8534 16.9798 24.5601C17.0264 25.6734 17.0598 26.7868 17.0798 27.9001C17.0998 29.3334 17.2598 30.4168 17.5598 31.1501C18.4131 33.2368 20.0598 34.6401 22.4998 35.3601C23.4931 35.6534 24.4331 36.0668 25.3198 36.6001Z" fill="#51BEAB"/>
<path d="M38.6298 34.5601C40.5631 35.0134 42.2231 35.8601 43.6098 37.1001C45.0831 38.4267 45.8298 39.9367 45.8498 41.6301C45.8765 43.8567 44.5398 45.3467 41.8398 46.1001C41.1798 45.8401 40.9565 45.3334 41.1698 44.5801C41.5565 43.1801 41.3098 41.9601 40.4298 40.9201C40.1965 40.6467 40.0365 40.3634 39.9498 40.0701C39.6298 38.9634 39.2398 38.0634 38.7798 37.3701C38.1531 36.4367 38.1031 35.5001 38.6298 34.5601Z" fill="#2570A3"/>
<path d="M4.98 46.0201C7.73037 46.0201 9.96 43.7904 9.96 41.0401C9.96 38.2897 7.73037 36.0601 4.98 36.0601C2.22962 36.0601 0 38.2897 0 41.0401C0 43.7904 2.22962 46.0201 4.98 46.0201Z" fill="#4DB75F"/>
<path d="M88.3 0.809998C88.533 0.554665 88.8179 0.350746 89.1364 0.211273C89.455 0.0718013 89.8002 -0.000153476 90.15 2.45786e-07H97.32C97.9666 2.45786e-07 98.04 0.203334 97.54 0.610001C95.4266 2.32333 93.2466 4.1 91 5.94C89.9866 6.76667 88.48 7.06666 86.48 6.84C86.0466 6.79333 85.6033 6.82 85.15 6.92C83.47 7.28667 83.2066 6.75667 84.36 5.33C85.3666 4.08334 86.68 2.57666 88.3 0.809998Z" fill="white"/>
<path d="M155.66 32.7C157.993 32.2866 158.93 30.4633 158.47 27.23C158.363 26.49 158.31 25.5866 158.31 24.52C158.31 24.3821 158.365 24.2498 158.462 24.1523C158.56 24.0548 158.692 24 158.83 24H166.53C166.737 24 166.935 24.0822 167.082 24.2284C167.228 24.3747 167.31 24.5731 167.31 24.78V36.55C167.31 36.6991 167.264 36.8446 167.178 36.9664C167.092 37.0882 166.971 37.1803 166.83 37.23C165.023 37.87 163.34 38.5133 161.78 39.16C159.68 40.04 157.973 40.57 156.66 40.75C150.447 41.59 145.367 39.9133 141.42 35.72C138.813 32.9533 137.317 29.8633 136.93 26.45C136.503 22.7166 137.483 19.17 139.87 15.81C142.31 12.3766 145.71 10.2 150.07 9.27998C156.937 7.83331 162.753 9.59998 167.52 14.58C167.576 14.6396 167.62 14.7097 167.649 14.7863C167.678 14.8629 167.691 14.9444 167.688 15.0262C167.686 15.108 167.667 15.1885 167.633 15.2629C167.599 15.3374 167.55 15.4044 167.49 15.46L161.43 20.92C161.384 20.9617 161.33 20.9931 161.271 21.0123C161.212 21.0315 161.149 21.038 161.086 21.0314C161.023 21.0249 160.962 21.0054 160.906 20.9741C160.85 20.9429 160.8 20.9007 160.76 20.85C159.267 18.9233 157.93 17.8266 156.75 17.56C152.957 16.7133 150.173 17.5766 148.4 20.15C147.18 21.93 146.707 23.93 146.98 26.15C147.287 28.6233 148.55 30.4767 150.77 31.71C152.457 32.65 154.087 32.98 155.66 32.7Z" fill="white"/>
<path d="M205.2 24.9302C205.196 27.0537 204.745 29.1556 203.872 31.1159C202.998 33.0762 201.72 34.8566 200.11 36.3553C198.5 37.854 196.59 39.0417 194.488 39.8507C192.387 40.6597 190.135 41.074 187.862 41.07C185.589 41.066 183.339 40.6439 181.24 39.8276C179.141 39.0113 177.235 37.8169 175.63 36.3126C174.025 34.8083 172.753 33.0234 171.887 31.0601C171.02 29.0967 170.576 26.9933 170.58 24.8698C170.584 22.7463 171.035 20.6444 171.909 18.6841C172.782 16.7238 174.06 14.9434 175.67 13.4447C177.28 11.946 179.19 10.7583 181.292 9.94932C183.393 9.14036 185.645 8.72604 187.918 8.73001C190.191 8.73397 192.442 9.15614 194.54 9.97242C196.639 10.7887 198.545 11.9831 200.15 13.4874C201.755 14.9918 203.027 16.7766 203.893 18.7399C204.76 20.7033 205.204 22.8067 205.2 24.9302ZM188.051 32.5983C189.006 32.5783 189.947 32.3597 190.82 31.9548C191.694 31.55 192.484 30.9669 193.144 30.2388C193.803 29.5107 194.321 28.652 194.667 27.7115C195.013 26.7711 195.18 25.7674 195.159 24.7577C195.116 22.7187 194.309 20.7792 192.916 19.3659C191.522 17.9526 189.657 17.1813 187.729 17.2217C186.775 17.2417 185.834 17.4604 184.96 17.8652C184.086 18.27 183.297 18.8531 182.637 19.5812C181.977 20.3093 181.459 21.1681 181.113 22.1085C180.768 23.049 180.601 24.0527 180.622 25.0623C180.664 27.1014 181.471 29.0408 182.864 30.4541C184.258 31.8674 186.123 32.6387 188.051 32.5983Z" fill="white"/>
<path d="M85.8801 32.2301L99.7301 32.4801C99.8847 32.4827 100.032 32.5418 100.141 32.6446C100.249 32.7475 100.31 32.8859 100.31 33.0301L100.26 39.6801C100.26 39.8153 100.207 39.945 100.114 40.0407C100.02 40.1363 99.8927 40.1901 99.7601 40.1901L75.8101 40.2501C75.7028 40.2501 75.5967 40.2288 75.4978 40.1875C75.3988 40.1461 75.3091 40.0856 75.2337 40.0093C75.1584 39.933 75.0989 39.8425 75.0588 39.7431C75.0187 39.6437 74.9987 39.5373 75.0001 39.4301L75.1201 10.0701C75.1201 9.9348 75.1738 9.80508 75.2694 9.70943C75.3651 9.61379 75.4948 9.56006 75.6301 9.56006H99.7601C99.8292 9.56011 99.8977 9.57316 99.9614 9.59844C100.025 9.62372 100.083 9.66072 100.131 9.70728C100.18 9.75384 100.218 9.80902 100.243 9.86959C100.269 9.93017 100.281 9.99492 100.28 10.0601L100.17 16.5701C100.167 16.7046 100.108 16.833 100.006 16.9281C99.9033 17.0232 99.765 17.0777 99.6201 17.0801L85.8801 17.3201C85.8091 17.3201 85.7389 17.3327 85.6734 17.3574C85.6079 17.382 85.5484 17.4181 85.4982 17.4636C85.4481 17.5091 85.4083 17.5631 85.3812 17.6225C85.354 17.682 85.3401 17.7457 85.3401 17.8101L85.3301 20.9901C85.3301 21.1253 85.3859 21.255 85.4853 21.3507C85.5847 21.4463 85.7195 21.5001 85.8601 21.5001H97.5501C97.6542 21.5003 97.7574 21.5203 97.853 21.5588C97.9486 21.5973 98.0348 21.6535 98.1061 21.7238C98.1773 21.7942 98.2322 21.8772 98.2673 21.9677C98.3024 22.0582 98.317 22.1543 98.3101 22.2501L97.9801 27.6801C97.9699 27.8352 97.8969 27.9807 97.7761 28.0866C97.6553 28.1926 97.4957 28.251 97.3301 28.2501H86.3201C86.0672 28.25 85.8245 28.3465 85.6448 28.5188C85.465 28.6911 85.3627 28.9251 85.3601 29.1701L85.3301 31.6901C85.3301 31.8316 85.3878 31.9674 85.4907 32.0684C85.5935 32.1694 85.7333 32.2274 85.8801 32.2301Z" fill="white"/>
<path d="M115.54 33.07L115.35 39.64C115.347 39.8026 115.286 39.9576 115.18 40.0717C115.073 40.1858 114.929 40.2498 114.78 40.25H105.91C105.831 40.25 105.753 40.2345 105.68 40.2044C105.608 40.1742 105.541 40.13 105.486 40.0743C105.43 40.0186 105.386 39.9524 105.356 39.8796C105.326 39.8068 105.31 39.7288 105.31 39.65L105.25 10.19C105.25 10.0545 105.3 9.92405 105.391 9.82548C105.482 9.7269 105.607 9.6677 105.74 9.66003C108.753 9.5267 111.77 9.46003 114.79 9.46003C120.077 9.45336 123.087 9.5067 123.82 9.62003C127.64 10.24 130.423 12.2567 132.17 15.67C133.53 18.33 133.893 20.9567 133.26 23.55C132.6 26.23 131 28.5834 128.46 30.61C128.336 30.7079 128.256 30.8526 128.236 31.0156C128.215 31.1786 128.256 31.3479 128.35 31.49L133.75 39.75C133.95 40.05 133.867 40.2 133.5 40.2H124.13C123.973 40.2001 123.817 40.1644 123.672 40.0953C123.527 40.0262 123.396 39.9254 123.29 39.8C121.997 38.2334 120.65 36.2367 119.25 33.81C118.577 32.6434 117.533 32.19 116.12 32.45C115.962 32.4788 115.818 32.5559 115.713 32.6685C115.608 32.7811 115.547 32.9227 115.54 33.07ZM121.87 18.44C120.423 17.44 118.55 17.1534 116.25 17.58C116.097 17.6077 115.958 17.6837 115.858 17.795C115.758 17.9063 115.702 18.046 115.7 18.19L115.59 23.95C115.588 24.085 115.64 24.2163 115.736 24.3181C115.833 24.4199 115.966 24.4848 116.11 24.5C117.49 24.66 118.84 24.5967 120.16 24.31C121.48 24.03 122.433 23.41 123.02 22.45C123.953 20.95 123.57 19.6134 121.87 18.44Z" fill="white"/>
<path d="M228.77 22.7398C229.29 23.3665 229.556 23.2698 229.57 22.4498L229.72 10.1898C229.722 10.0474 229.779 9.91157 229.878 9.81085C229.977 9.71014 230.11 9.6524 230.25 9.64979L239.5 9.53979C239.565 9.53845 239.63 9.55091 239.69 9.57644C239.751 9.60197 239.806 9.64006 239.853 9.68848C239.899 9.7369 239.936 9.79468 239.961 9.85844C239.987 9.92219 240 9.99064 240 10.0598L240.06 39.6698C240.06 39.7429 240.046 39.8152 240.02 39.8826C239.994 39.95 239.955 40.0111 239.907 40.0623C239.858 40.1135 239.801 40.1538 239.738 40.1808C239.675 40.2079 239.608 40.2211 239.54 40.2198L231.31 40.0498C231.163 40.0469 231.012 40.006 230.869 39.93C230.725 39.854 230.593 39.7448 230.48 39.6098L220.12 27.1798C219.586 26.5465 219.313 26.6398 219.3 27.4598L219.06 39.7398C219.057 39.876 219.001 40.0057 218.904 40.101C218.807 40.1964 218.676 40.2498 218.54 40.2498H209.84C209.636 40.2498 209.44 40.1697 209.295 40.0272C209.151 39.8847 209.07 39.6914 209.07 39.4898L209.24 10.1898C209.24 10.0456 209.293 9.90724 209.388 9.80438C209.484 9.70152 209.614 9.64242 209.75 9.63979L217.25 9.52979C217.4 9.52968 217.552 9.56631 217.695 9.63713C217.839 9.70795 217.97 9.81124 218.08 9.93979L228.77 22.7398Z" fill="white"/>
<path d="M122.455 45.8698L122.395 45.8703C121.942 45.8734 121.578 46.2431 121.581 46.696L121.619 52.1358C121.622 52.5887 121.992 52.9532 122.445 52.9501L122.505 52.9497C122.957 52.9465 123.322 52.5768 123.319 52.124L123.281 46.6841C123.278 46.2312 122.908 45.8667 122.455 45.8698Z" fill="white"/>
<path d="M153.94 50.31C154.047 51.3233 153.823 52.1066 153.27 52.66C152.63 53.3066 152.31 53.1733 152.31 52.26V46.74C152.31 46.5694 152.349 46.4065 152.421 46.2702C152.494 46.1339 152.597 46.0298 152.72 45.97C153.14 45.7633 153.483 45.8766 153.75 46.31C154.523 47.59 155.303 48.5366 156.09 49.15C156.35 49.35 156.473 49.28 156.46 48.94C156.427 48.0066 156.58 47.1166 156.92 46.27C156.981 46.1207 157.085 45.9966 157.213 45.9225C157.341 45.8483 157.483 45.8296 157.61 45.87C158.037 45.9966 158.223 46.3566 158.17 46.95C158.11 47.55 158.08 47.9233 158.08 48.07C158.133 49.49 158.083 50.9066 157.93 52.32C157.922 52.3914 157.901 52.4606 157.868 52.5236C157.836 52.5866 157.793 52.642 157.742 52.6867C157.691 52.7314 157.632 52.7645 157.57 52.7839C157.508 52.8034 157.443 52.8088 157.38 52.8C156.68 52.6933 156.17 52.2433 155.85 51.45C155.55 50.69 155.053 50.1866 154.36 49.94C154.31 49.9228 154.256 49.9197 154.204 49.9308C154.152 49.9419 154.103 49.9669 154.061 50.0035C154.019 50.0402 153.987 50.0874 153.965 50.1409C153.944 50.1943 153.936 50.2524 153.94 50.31Z" fill="white"/>
<path d="M171.01 51.21C171.417 51.1033 171.837 51.3167 172.27 51.85C172.309 51.8976 172.336 51.9538 172.349 52.0138C172.362 52.0739 172.361 52.1362 172.346 52.1957C172.33 52.2552 172.3 52.3101 172.26 52.3561C172.219 52.402 172.168 52.4376 172.11 52.46C171.03 52.9 169.92 52.9633 168.78 52.65C168.642 52.6125 168.521 52.5286 168.434 52.4111C168.347 52.2936 168.3 52.1492 168.3 52L168.36 46.57C168.36 46.4847 168.374 46.3995 168.4 46.3206C168.426 46.2417 168.464 46.1711 168.51 46.1137C168.557 46.0564 168.612 46.0138 168.671 45.9889C168.729 45.9641 168.791 45.9576 168.85 45.97C169.497 46.1167 169.81 47.5467 169.79 50.26C169.788 50.4098 169.821 50.558 169.886 50.693C169.951 50.828 170.046 50.9461 170.164 51.0381C170.282 51.1302 170.42 51.1936 170.567 51.2234C170.714 51.2532 170.866 51.2486 171.01 51.21Z" fill="white"/>
<path d="M191.128 45.8615L191.048 45.8599C190.667 45.8526 190.352 46.1555 190.345 46.5366L190.236 52.2155C190.228 52.5965 190.531 52.9113 190.912 52.9186L190.992 52.9202C191.373 52.9275 191.688 52.6245 191.695 52.2435L191.804 46.5646C191.812 46.1836 191.509 45.8688 191.128 45.8615Z" fill="white"/>
<path d="M120.199 51.5993C120.204 51.7358 120.182 51.8719 120.134 51.9999C120.086 52.1278 120.014 52.245 119.921 52.3449C119.827 52.4448 119.716 52.5254 119.591 52.582C119.467 52.6387 119.333 52.6703 119.196 52.675L116.158 52.7811C116.022 52.7859 115.886 52.7637 115.758 52.7159C115.63 52.6681 115.512 52.5955 115.413 52.5024C115.313 52.4092 115.232 52.2973 115.175 52.173C115.119 52.0487 115.087 51.9145 115.082 51.778L114.921 47.1409C114.916 47.0044 114.938 46.8683 114.986 46.7404C115.034 46.6125 115.106 46.4952 115.199 46.3953C115.292 46.2954 115.404 46.2149 115.529 46.1582C115.653 46.1016 115.787 46.07 115.924 46.0652L118.962 45.9591C119.098 45.9544 119.234 45.9765 119.362 46.0243C119.49 46.0722 119.607 46.1447 119.707 46.2379C119.807 46.331 119.888 46.4429 119.944 46.5672C120.001 46.6915 120.033 46.8257 120.037 46.9622L120.199 51.5993ZM118.603 48.2179C118.623 48.0441 118.537 47.865 118.364 47.7199C118.19 47.5749 117.943 47.4759 117.677 47.4446C117.545 47.4292 117.413 47.4308 117.287 47.4494C117.162 47.4681 117.045 47.5034 116.945 47.5533C116.845 47.6032 116.762 47.6668 116.703 47.7404C116.643 47.8141 116.607 47.8962 116.597 47.9823C116.576 48.1562 116.663 48.3353 116.836 48.4803C117.01 48.6253 117.257 48.7244 117.523 48.7556C117.655 48.7711 117.787 48.7695 117.913 48.7508C118.038 48.7322 118.155 48.6969 118.255 48.647C118.355 48.597 118.438 48.5334 118.497 48.4598C118.557 48.3862 118.593 48.304 118.603 48.2179ZM118.817 50.8899C118.833 50.6757 118.733 50.4618 118.541 50.2954C118.348 50.1289 118.078 50.0235 117.789 50.0023C117.647 49.9918 117.504 50.0024 117.369 50.0333C117.234 50.0642 117.11 50.1149 117.003 50.1825C116.897 50.2501 116.81 50.3333 116.748 50.4273C116.686 50.5213 116.651 50.6242 116.643 50.7303C116.627 50.9446 116.727 51.1585 116.919 51.3249C117.112 51.4914 117.382 51.5968 117.671 51.6179C117.813 51.6284 117.956 51.6179 118.091 51.587C118.226 51.5561 118.35 51.5054 118.457 51.4378C118.563 51.3702 118.65 51.287 118.712 51.193C118.773 51.099 118.809 50.996 118.817 50.8899Z" fill="white"/>
<path d="M132.087 49.7646C132.049 50.2253 131.913 50.6734 131.685 51.0832C131.458 51.493 131.144 51.8566 130.762 52.1532C130.38 52.4497 129.937 52.6734 129.458 52.8116C128.979 52.9497 128.474 52.9995 127.971 52.9582C127.469 52.9169 126.979 52.7852 126.529 52.5708C126.079 52.3563 125.678 52.0632 125.35 51.7082C125.021 51.3532 124.771 50.9433 124.614 50.5019C124.456 50.0604 124.395 49.5961 124.433 49.1354C124.471 48.6747 124.607 48.2267 124.834 47.8168C125.062 47.407 125.375 47.0434 125.758 46.7469C126.14 46.4503 126.583 46.2266 127.062 46.0885C127.541 45.9503 128.046 45.9005 128.548 45.9418C129.051 45.9831 129.541 46.1148 129.991 46.3293C130.441 46.5437 130.841 46.8368 131.17 47.1918C131.499 47.5468 131.749 47.9567 131.906 48.3981C132.063 48.8396 132.125 49.3039 132.087 49.7646ZM130.5 49.47C130.5 49.1785 130.442 48.8898 130.331 48.6205C130.219 48.3511 130.056 48.1064 129.85 47.9002C129.643 47.6941 129.399 47.5306 129.129 47.419C128.86 47.3074 128.571 47.25 128.28 47.25C127.691 47.25 127.126 47.4839 126.71 47.9002C126.294 48.3166 126.06 48.8812 126.06 49.47C126.06 50.0588 126.294 50.6235 126.71 51.0398C127.126 51.4561 127.691 51.69 128.28 51.69C128.571 51.69 128.86 51.6326 129.129 51.521C129.399 51.4095 129.643 51.2459 129.85 51.0398C130.056 50.8336 130.219 50.5889 130.331 50.3196C130.442 50.0502 130.5 49.7615 130.5 49.47Z" fill="white"/>
<path d="M135.85 48.3002L135.8 51.5102C135.794 51.8509 135.68 52.1582 135.48 52.3702C134.447 53.4702 134.117 52.9402 134.49 50.7802C134.757 49.2669 134.094 47.9302 132.5 46.7702C132.087 46.4635 132.134 46.2602 132.64 46.1602C134.234 45.8335 135.857 45.8469 137.51 46.2002C137.574 46.2148 137.633 46.243 137.685 46.2827C137.736 46.3223 137.777 46.3723 137.805 46.4285C137.834 46.4848 137.848 46.5459 137.847 46.6069C137.846 46.668 137.83 46.7273 137.8 46.7802C137.514 47.3069 137.037 47.6335 136.37 47.7602C136.224 47.7861 136.092 47.8546 135.997 47.9534C135.901 48.0522 135.85 48.175 135.85 48.3002Z" fill="white"/>
<path d="M140.59 51.35L142.31 51.55C142.529 51.5745 142.728 51.6094 142.887 51.6514C143.046 51.6934 143.161 51.7411 143.22 51.79C143.9 52.35 143.597 52.6566 142.31 52.71C141.563 52.7366 140.633 52.75 139.52 52.75C139.364 52.75 139.213 52.6962 139.103 52.6006C138.992 52.505 138.93 52.3752 138.93 52.24L138.9 46.67C138.897 46.5215 138.957 46.3781 139.066 46.2712C139.175 46.1643 139.324 46.1027 139.48 46.1L142.56 46.05C143.927 46.0233 144.063 46.4633 142.97 47.37C142.643 47.6433 142.087 47.72 141.3 47.6C141.125 47.5724 140.955 47.578 140.805 47.6165C140.654 47.655 140.529 47.725 140.44 47.82C140.173 48.12 140.2 48.3566 140.52 48.53C140.573 48.5602 140.693 48.581 140.864 48.5899C141.036 48.5987 141.253 48.5953 141.49 48.58C141.723 48.56 141.957 48.5966 142.19 48.69C142.336 48.7496 142.462 48.8512 142.552 48.9824C142.642 49.1136 142.694 49.269 142.7 49.43C142.733 50.2033 142.167 50.4133 141 50.06C140.38 49.8733 140.07 50.0866 140.07 50.7C140.07 50.8616 140.122 51.0171 140.218 51.1369C140.314 51.2568 140.446 51.3326 140.59 51.35Z" fill="white"/>
<path d="M146.2 48.2898C145.367 50.7431 146.24 51.7598 148.82 51.3398C148.947 51.3198 149.267 51.2265 149.78 51.0598C150.553 50.8131 150.777 51.1165 150.45 51.9698C150.393 52.1171 150.304 52.2506 150.188 52.3611C150.073 52.4717 149.933 52.5565 149.78 52.6098C147.773 53.2831 146.203 52.9298 145.07 51.5498C144.177 50.4698 143.98 49.3198 144.48 48.0998C145.033 46.7465 146.223 46.0131 148.05 45.8998C149.263 45.8198 150.11 46.1531 150.59 46.8998C151.303 48.0198 151.043 48.3331 149.81 47.8398C148.803 47.4331 147.813 47.3698 146.84 47.6498C146.695 47.6932 146.561 47.7739 146.45 47.8853C146.338 47.9966 146.253 48.1353 146.2 48.2898Z" fill="white"/>
<path d="M166.93 49.4035C166.933 49.8631 166.837 50.3189 166.648 50.7449C166.459 51.1709 166.181 51.5586 165.828 51.8861C165.476 52.2136 165.057 52.4743 164.594 52.6535C164.132 52.8326 163.636 52.9266 163.134 52.9301C162.121 52.9371 161.147 52.5752 160.426 51.9238C159.705 51.2725 159.297 50.3851 159.29 49.4569C159.287 48.9973 159.383 48.5414 159.572 48.1155C159.761 47.6895 160.039 47.3017 160.392 46.9742C160.744 46.6468 161.163 46.386 161.626 46.2069C162.088 46.0278 162.584 45.9338 163.086 45.9303C164.099 45.9232 165.073 46.2852 165.794 46.9365C166.515 47.5879 166.923 48.4753 166.93 49.4035ZM165.37 49.4202C165.37 48.8287 165.135 48.2615 164.717 47.8433C164.299 47.4251 163.731 47.1902 163.14 47.1902C162.549 47.1902 161.981 47.4251 161.563 47.8433C161.145 48.2615 160.91 48.8287 160.91 49.4202C160.91 50.0116 161.145 50.5788 161.563 50.997C161.981 51.4152 162.549 51.6502 163.14 51.6502C163.731 51.6502 164.299 51.4152 164.717 50.997C165.135 50.5788 165.37 50.0116 165.37 49.4202Z" fill="white"/>
<path d="M180.409 49.3367C180.427 50.2648 180.043 51.1626 179.341 51.8326C178.639 52.5025 177.677 52.8898 176.667 52.9092C176.167 52.9188 175.67 52.8378 175.204 52.6708C174.739 52.5038 174.314 52.2542 173.954 51.936C173.594 51.6178 173.306 51.2374 173.106 50.8165C172.907 50.3956 172.799 49.9425 172.791 49.4829C172.773 48.5548 173.157 47.6571 173.859 46.9871C174.561 46.3171 175.522 45.9298 176.533 45.9104C177.033 45.9008 177.53 45.9818 177.996 46.1488C178.461 46.3158 178.886 46.5655 179.246 46.8837C179.606 47.2018 179.894 47.5822 180.094 48.0031C180.293 48.424 180.4 48.8772 180.409 49.3367ZM178.77 49.4198C178.77 48.8311 178.536 48.2664 178.12 47.8501C177.703 47.4337 177.139 47.1998 176.55 47.1998C175.961 47.1998 175.396 47.4337 174.98 47.8501C174.564 48.2664 174.33 48.8311 174.33 49.4198C174.33 50.0086 174.564 50.5733 174.98 50.9896C175.396 51.4059 175.961 51.6398 176.55 51.6398C177.139 51.6398 177.703 51.4059 178.12 50.9896C178.536 50.5733 178.77 50.0086 178.77 49.4198Z" fill="white"/>
<path d="M186.55 50.5999C184.623 49.6533 185.01 49.1399 187.71 49.0599C187.874 49.0545 188.037 49.0876 188.186 49.1566C188.335 49.2257 188.466 49.3287 188.569 49.4576C188.672 49.5866 188.743 49.7379 188.778 49.8997C188.813 50.0615 188.81 50.2293 188.77 50.3899C188.397 51.8766 187.387 52.6499 185.74 52.7099C183.613 52.7966 182.263 52.0733 181.69 50.5399C181.177 49.1733 181.463 47.9733 182.55 46.9399C183.803 45.7466 185.427 45.5899 187.42 46.4699C187.574 46.5376 187.708 46.6367 187.811 46.7588C187.914 46.8808 187.982 47.022 188.01 47.1699C188.157 47.9233 187.757 48.1166 186.81 47.7499C184.683 46.9233 183.453 47.1099 183.12 48.3099C182.587 50.2233 183.313 51.3899 185.3 51.8099C186.06 51.9766 186.573 51.7999 186.84 51.2799C186.869 51.2245 186.885 51.1627 186.886 51.0982C186.887 51.0337 186.874 50.9679 186.847 50.9045C186.82 50.8411 186.78 50.7815 186.729 50.7292C186.678 50.6769 186.617 50.633 186.55 50.5999Z" fill="white"/>
<path d="M194.63 52.25C194.204 52.89 193.734 52.99 193.22 52.55C193.11 52.4605 193.033 52.3319 193 52.1827C192.968 52.0336 192.982 51.8716 193.04 51.72L194.94 46.77C195.004 46.6051 195.09 46.4574 195.195 46.3355C195.3 46.2136 195.42 46.12 195.55 46.06C196.01 45.8467 196.444 45.8634 196.85 46.11C197.117 46.27 197.344 46.5867 197.53 47.06C198.19 48.7 198.814 50.3567 199.4 52.03C199.463 52.213 199.489 52.3958 199.477 52.5558C199.464 52.7158 199.413 52.8459 199.33 52.93C199.13 53.13 198.874 53.07 198.56 52.75C197.614 51.7767 196.544 51.42 195.35 51.68C195.224 51.7088 195.095 51.7742 194.971 51.8722C194.847 51.9703 194.731 52.0988 194.63 52.25ZM195.54 49.01C195.007 50.65 195.384 50.9967 196.67 50.05C196.795 49.9585 196.895 49.836 196.96 49.6942C197.025 49.5525 197.052 49.3961 197.04 49.24C196.967 48.2934 196.704 47.91 196.25 48.09C195.944 48.21 195.707 48.5167 195.54 49.01Z" fill="white"/>
</svg>
